<svg xmlns="http://www.w3.org/2000/svg" viewBox="0 0 24 24" id="ecommerce"><g data-name="8. Ecommerce"><rect width="22" height="13" x="1" y="5" fill="#61c5fa"></rect><rect width="22" height="4" x="1" y="16" fill="#468ff1"></rect><rect width="10" height="2" x="7" y="22" fill="#468ff1"></rect><rect width="4" height="2" x="10" y="20" fill="#3870cf"></rect><rect width="18" height="11" x="3" y="5" fill="#fff"></rect><polygon fill="#6dedd4" points="24 5 0 5 3 0 21 0 24 5"></polygon><path fill="#468ff1" d="M0 5H4A0 0 0 014 5V6A2 2 0 012 8H2A2 2 0 010 6V5A0 0 0 010 5zM4 5H8A0 0 0 018 5V6A2 2 0 016 8H6A2 2 0 014 6V5A0 0 0 014 5zM12 5h4a0 0 0 010 0V6a2 2 0 01-2 2h0a2 2 0 01-2-2V5A0 0 0 0112 5zM8 5h4a0 0 0 010 0V6a2 2 0 01-2 2h0A2 2 0 018 6V5A0 0 0 018 5zM16 5h4a0 0 0 010 0V6a2 2 0 01-2 2h0a2 2 0 01-2-2V5A0 0 0 0116 5zM20 5h4a0 0 0 010 0V6a2 2 0 01-2 2h0a2 2 0 01-2-2V5A0 0 0 0120 5z"></path></g></svg>