<svg xmlns="http://www.w3.org/2000/svg" enable-background="new 0 0 64 64" viewBox="0 0 64 64" id="business-performance"><path fill="#4e5292" d="M60.86,3.74H3.14C1.41,3.74,0,5.14,0,6.88v41.48c0,1.72,1.41,3.14,3.14,3.14h20.34l-1.01,4.38H20.8
			c-1.52,0-3.86,1.67-3.86,3.89c0,0.28,0.22,0.49,0.49,0.49h29.15c0.27,0,0.49-0.22,0.49-0.49c0-2.22-2.34-3.89-3.87-3.89h-1.67
			l-1.01-4.38h20.34c1.73,0,3.14-1.42,3.14-3.14V6.88C64,5.14,62.59,3.74,60.86,3.74z M24.49,51.5h15.03l1,4.38H23.48L24.49,51.5z
			 M43.2,56.87c0.97,0,2.5,1.08,2.83,2.41H17.98c0.32-1.33,1.85-2.41,2.82-2.41H43.2z M63.02,48.36c0,1.18-0.96,2.16-2.16,2.16H3.14
			c-1.19,0-2.16-0.97-2.16-2.16V6.88c0-1.19,0.96-2.16,2.16-2.16h57.72c1.19,0,2.16,0.96,2.16,2.16V48.36z"></path><path fill="#cfb7a5" d="M46.03,59.28H17.98c0.32-1.33,1.85-2.41,2.82-2.41H43.2C44.18,56.87,45.71,57.95,46.03,59.28z"></path><polygon fill="#bea796" points="40.52 55.88 23.48 55.88 24.49 51.5 39.51 51.5"></polygon><path fill="#e2cec3" d="M60.86,4.72H3.14c-1.19,0-2.16,0.96-2.16,2.16v41.48c0,1.18,0.96,2.16,2.16,2.16h57.72
			c1.19,0,2.16-0.97,2.16-2.16V6.88C63.02,5.69,62.05,4.72,60.86,4.72z M60.16,44.08c0,0.28-0.22,0.49-0.49,0.49H4.33
			c-0.28,0-0.49-0.22-0.49-0.49V8.39c0-0.27,0.22-0.49,0.49-0.49h55.34c0.28,0,0.49,0.23,0.49,0.49V44.08z"></path><path fill="#cfb7a5" d="M63.02,37.13v11.25H5.27c-1.19,0-2.16-0.97-2.16-2.16V4.72h11.25V7.9H4.33c-0.28,0-0.49,0.23-0.49,0.49
			v35.68c0,0.28,0.22,0.49,0.49,0.49h55.34c0.28,0,0.49-0.22,0.49-0.49v-6.94H63.02z"></path><path fill="#bea796" d="M63.02,48.39c-0.02,1.17-0.97,2.13-2.16,2.13H3.14c-1.19,0-2.16-0.97-2.16-2.16V6.88
			c0-1.18,0.95-2.14,2.13-2.16v41.51c0,1.18,0.96,2.16,2.16,2.16H63.02z"></path><path fill="#4e5292" d="M59.67,7.9H4.33c-0.28,0-0.49,0.23-0.49,0.49v35.68c0,0.28,0.22,0.49,0.49,0.49h55.34
			c0.28,0,0.49-0.22,0.49-0.49V8.39C60.16,8.13,59.94,7.9,59.67,7.9z M59.18,43.58H4.82V8.89h54.35V43.58z"></path><path fill="#bbe0f6" d="M4.82,8.89v34.7h54.35V8.89H4.82z M36.25,40.51c0.28,0,0.49,0.22,0.49,0.49c0,0.27-0.22,0.49-0.49,0.49H8.05
			c-0.28,0-0.49-0.23-0.49-0.49c0-0.28,0.22-0.49,0.49-0.49h0.88V21.15c0-0.27,0.22-0.49,0.49-0.49h3.02c0.28,0,0.49,0.23,0.49,0.49
			v19.36h1.6V27.5c0-0.28,0.22-0.49,0.49-0.49h3.02c0.27,0,0.49,0.22,0.49,0.49v13.02h1.6V30.33c0-0.27,0.23-0.49,0.49-0.49h3.02
			c0.28,0,0.49,0.23,0.49,0.49v10.18h1.6V27.5c0-0.09,0.02-0.17,0.06-0.24C25.9,27.1,26.06,27,26.25,27h3.02
			c0.28,0,0.49,0.22,0.49,0.49v13.02h1.6v-7.39c0-0.28,0.22-0.49,0.49-0.49h3.02c0.27,0,0.49,0.22,0.49,0.49v7.39H36.25z
			 M40.18,27.5l-1.94-1.94c-0.19-0.19-0.19-0.5,0-0.7l0.66-0.65c-0.35-0.6-0.62-1.24-0.79-1.92h-0.94c-0.28,0-0.49-0.22-0.49-0.49
			v-2.74c0-0.27,0.22-0.49,0.49-0.49h0.93c0.18-0.67,0.44-1.31,0.8-1.91L38.24,16c-0.2-0.2-0.2-0.5,0-0.7l1.93-1.93
			c0.2-0.2,0.5-0.2,0.7,0l0.66,0.66c0.6-0.35,1.24-0.62,1.91-0.8v-0.94c0-0.27,0.22-0.49,0.49-0.49h2.74c0.28,0,0.49,0.23,0.49,0.49
			v0.94c0.67,0.17,1.31,0.43,1.91,0.79l0.66-0.66c0.2-0.19,0.5-0.19,0.7,0l1.94,1.94c0.19,0.19,0.19,0.5,0,0.69l-0.66,0.66
			c0.35,0.6,0.62,1.24,0.79,1.91h0.94c0.28,0,0.49,0.23,0.49,0.49v2.75c0,0.27-0.22,0.49-0.49,0.49H52.5
			c-0.17,0.67-0.43,1.31-0.79,1.91l0.66,0.66c0.2,0.19,0.2,0.5,0,0.7l-1.93,1.93c-0.2,0.2-0.51,0.2-0.7,0l-0.66-0.66
			c-0.6,0.35-1.24,0.62-1.91,0.8v0.94c0,0.27-0.22,0.49-0.49,0.49h-2.74c-0.28,0-0.49-0.23-0.49-0.49v-0.94
			c-0.67-0.17-1.31-0.43-1.91-0.79l-0.66,0.66C40.68,27.68,40.37,27.68,40.18,27.5z M55.34,40.91H40.81c-0.28,0-0.49-0.22-0.49-0.49
			c0-0.27,0.22-0.49,0.49-0.49h14.52c0.27,0,0.49,0.23,0.49,0.49C55.83,40.69,55.6,40.91,55.34,40.91z M55.34,37.59H44.75
			c-0.28,0-0.49-0.22-0.49-0.49c0-0.28,0.22-0.49,0.49-0.49h10.58c0.27,0,0.49,0.22,0.49,0.49C55.83,37.37,55.6,37.59,55.34,37.59z
			 M55.34,34.27H42.78c-0.28,0-0.49-0.23-0.49-0.49c0-0.28,0.22-0.49,0.49-0.49h12.55c0.27,0,0.49,0.22,0.49,0.49
			C55.83,34.04,55.6,34.27,55.34,34.27z"></path><path fill="#4e5292" d="M36.25,40.51h-0.88v-7.39c0-0.28-0.23-0.49-0.49-0.49h-3.02c-0.28,0-0.49,0.22-0.49,0.49v7.39h-1.6V27.5
			c0-0.28-0.22-0.49-0.49-0.49h-3.02c-0.28,0-0.49,0.22-0.49,0.49v13.02h-1.6V30.33c0-0.27-0.22-0.49-0.49-0.49h-3.02
			c-0.27,0-0.49,0.23-0.49,0.49v10.18h-1.6V27.5c0-0.28-0.23-0.49-0.49-0.49h-3.02c-0.28,0-0.49,0.22-0.49,0.49v13.02h-1.6V21.15
			c0-0.27-0.22-0.49-0.49-0.49H9.42c-0.28,0-0.49,0.23-0.49,0.49v19.36H8.05c-0.28,0-0.49,0.22-0.49,0.49
			c0,0.27,0.22,0.49,0.49,0.49h28.2c0.28,0,0.49-0.23,0.49-0.49C36.75,40.73,36.53,40.51,36.25,40.51z M11.95,40.51H9.92V21.65h2.04
			V40.51z M17.57,40.51h-2.04V27.99h2.04V40.51z M23.17,40.51h-2.04v-9.69h2.04V40.51z M28.78,40.51h-2.04V27.99h2.04V40.51z
			 M34.39,40.51h-2.04v-6.9h2.04V40.51z"></path><rect width="2.04" height="6.9" x="32.35" y="33.61" fill="#f1b8c7"></rect><rect width="2.04" height="18.87" x="9.92" y="21.65" fill="#bfdda0"></rect><rect width="2.04" height="12.52" x="15.53" y="27.99" fill="#ffdb7c"></rect><rect width="2.04" height="9.69" x="21.13" y="30.82" fill="#e2cec3"></rect><rect width="2.04" height="12.52" x="26.74" y="27.99" fill="#bec5da"></rect><path fill="#4e5292" d="M45.3,16.91c-1.93,0-3.51,1.58-3.51,3.52c0,1.94,1.58,3.52,3.51,3.52c1.94,0,3.52-1.58,3.52-3.52
			C48.82,18.49,47.24,16.91,45.3,16.91z M45.3,22.96c-1.39,0-2.52-1.13-2.52-2.53c0-1.4,1.13-2.53,2.52-2.53
			c1.4,0,2.53,1.13,2.53,2.53C47.83,21.82,46.7,22.96,45.3,22.96z"></path><path fill="#4e5292" d="M53.44,18.56H52.5c-0.17-0.67-0.43-1.31-0.79-1.91l0.66-0.66c0.19-0.19,0.19-0.5,0-0.69l-1.94-1.94
			c-0.2-0.19-0.5-0.19-0.7,0l-0.66,0.66c-0.6-0.35-1.24-0.62-1.91-0.79v-0.94c0-0.27-0.22-0.49-0.49-0.49h-2.74
			c-0.28,0-0.49,0.23-0.49,0.49v0.94c-0.67,0.18-1.31,0.44-1.91,0.8l-0.66-0.66c-0.2-0.2-0.5-0.2-0.7,0l-1.93,1.93
			c-0.2,0.2-0.2,0.5,0,0.7l0.66,0.66c-0.35,0.6-0.62,1.24-0.8,1.91h-0.93c-0.28,0-0.49,0.23-0.49,0.49v2.74
			c0,0.28,0.22,0.49,0.49,0.49h0.94c0.17,0.68,0.43,1.32,0.79,1.92l-0.66,0.65c-0.19,0.2-0.19,0.51,0,0.7l1.94,1.94
			c0.19,0.19,0.5,0.19,0.7,0l0.66-0.66c0.6,0.35,1.24,0.62,1.91,0.79v0.94c0,0.27,0.22,0.49,0.49,0.49h2.74
			c0.28,0,0.49-0.23,0.49-0.49v-0.94c0.67-0.18,1.31-0.44,1.91-0.8l0.66,0.66c0.19,0.2,0.5,0.2,0.7,0l1.93-1.93
			c0.2-0.2,0.2-0.51,0-0.7l-0.66-0.66c0.35-0.6,0.62-1.24,0.79-1.91h0.94c0.28,0,0.49-0.23,0.49-0.49v-2.75
			C53.93,18.78,53.71,18.56,53.44,18.56z M52.94,21.3h-0.83c-0.24,0-0.44,0.16-0.48,0.39c-0.17,0.82-0.49,1.6-0.96,2.29
			c-0.13,0.2-0.11,0.45,0.06,0.62l0.59,0.59l-1.24,1.24l-0.58-0.59c-0.17-0.17-0.43-0.19-0.63-0.06c-0.7,0.47-1.47,0.79-2.29,0.95
			c-0.23,0.05-0.39,0.25-0.39,0.48v0.84h-1.75v-0.84c0-0.24-0.17-0.43-0.39-0.48c-0.83-0.17-1.6-0.48-2.3-0.95
			c-0.2-0.14-0.45-0.11-0.62,0.06l-0.59,0.59l-1.24-1.24l0.59-0.59c0.17-0.17,0.2-0.42,0.06-0.62c-0.46-0.7-0.79-1.48-0.96-2.29
			c-0.04-0.24-0.25-0.4-0.48-0.4h-0.83v-1.75h0.83c0.24,0,0.44-0.16,0.48-0.39c0.17-0.82,0.48-1.6,0.96-2.29
			c0.13-0.2,0.1-0.45-0.06-0.62l-0.59-0.59l1.24-1.24L41.11,15c0.17,0.16,0.43,0.19,0.62,0.06c0.71-0.47,1.48-0.79,2.3-0.96
			c0.23-0.05,0.39-0.25,0.39-0.48v-0.84h1.75v0.84c0,0.24,0.17,0.43,0.39,0.48c0.83,0.16,1.6,0.48,2.3,0.95
			c0.2,0.14,0.45,0.11,0.62-0.06l0.59-0.59l1.24,1.24l-0.59,0.59c-0.17,0.17-0.2,0.42-0.06,0.62c0.46,0.7,0.79,1.48,0.95,2.29
			c0.05,0.24,0.26,0.39,0.48,0.39h0.84V21.3z"></path><path fill="#ffdb7c" d="M52.11,19.54c-0.23,0-0.43-0.16-0.48-0.39c-0.16-0.82-0.48-1.6-0.95-2.29c-0.14-0.2-0.11-0.45,0.06-0.62
			l0.59-0.59l-1.24-1.24l-0.59,0.59c-0.17,0.17-0.42,0.2-0.62,0.06c-0.7-0.46-1.48-0.79-2.3-0.95c-0.23-0.05-0.39-0.25-0.39-0.48
			v-0.84h-1.75v0.84c0,0.24-0.17,0.43-0.39,0.48c-0.83,0.17-1.6,0.48-2.3,0.96c-0.19,0.13-0.45,0.1-0.62-0.06l-0.58-0.59l-1.24,1.24
			l0.59,0.59c0.16,0.17,0.19,0.42,0.06,0.62c-0.47,0.7-0.79,1.48-0.96,2.29c-0.04,0.24-0.25,0.39-0.48,0.39h-0.83v1.75h0.83
			c0.24,0,0.44,0.17,0.48,0.4c0.17,0.82,0.49,1.6,0.96,2.29c0.14,0.2,0.11,0.45-0.06,0.62l-0.59,0.59l1.24,1.24l0.59-0.59
			c0.17-0.17,0.42-0.2,0.62-0.06c0.7,0.46,1.48,0.78,2.3,0.95c0.23,0.05,0.39,0.25,0.39,0.48v0.84h1.75v-0.84
			c0-0.24,0.17-0.43,0.39-0.48c0.83-0.17,1.59-0.48,2.29-0.95c0.2-0.13,0.46-0.11,0.63,0.06l0.58,0.59l1.24-1.24l-0.59-0.59
			c-0.17-0.17-0.19-0.42-0.06-0.62c0.46-0.7,0.79-1.48,0.96-2.29c0.04-0.24,0.25-0.39,0.48-0.39h0.83v-1.76H52.11z M45.3,23.94
			c-1.93,0-3.51-1.58-3.51-3.52c0-1.94,1.58-3.52,3.51-3.52c1.94,0,3.52,1.58,3.52,3.52C48.82,22.37,47.24,23.94,45.3,23.94z"></path><path fill="#f0ca6c" d="M52.11,19.54c-0.23,0-0.43-0.16-0.48-0.39c-0.16-0.82-0.48-1.6-0.95-2.29c-0.14-0.2-0.11-0.45,0.06-0.62
			l0.59-0.59l-1.24-1.24l-0.59,0.59c-0.17,0.17-0.42,0.2-0.62,0.06c-0.7-0.46-1.48-0.79-2.3-0.95c-0.23-0.05-0.39-0.25-0.39-0.48
			v-0.84h-1.75v0.84c0,0.24-0.17,0.43-0.39,0.48c-0.83,0.17-1.6,0.48-2.3,0.96c-0.19,0.13-0.45,0.1-0.62-0.06l-0.58-0.59l-1.24,1.24
			l0.59,0.59c0.16,0.17,0.19,0.42,0.06,0.62c-0.47,0.7-0.79,1.48-0.96,2.29c-0.04,0.24-0.25,0.39-0.48,0.39h-0.83v1.75h0.83
			c0.24,0,0.44,0.17,0.48,0.4c0.17,0.82,0.49,1.6,0.96,2.29c0.14,0.2,0.11,0.45-0.06,0.62l-0.59,0.59l1.24,1.24l0.59-0.59
			c0.17-0.17,0.42-0.2,0.62-0.06c0.7,0.46,1.48,0.78,2.3,0.95c0.23,0.05,0.39,0.25,0.39,0.48v0.84h1.75v-0.84
			c0-0.24,0.17-0.43,0.39-0.48c0.83-0.17,1.59-0.48,2.29-0.95c0.2-0.13,0.46-0.11,0.63,0.06l0.58,0.59l1.24-1.24l-0.59-0.59
			c-0.17-0.17-0.19-0.42-0.06-0.62c0.46-0.7,0.79-1.48,0.96-2.29c0.04-0.24,0.25-0.39,0.48-0.39h0.83v-1.76H52.11z M52.16,21.21
			h-0.75c-0.21,0-0.39,0.14-0.42,0.35c-0.16,0.73-0.44,1.43-0.86,2.06c-0.12,0.17-0.1,0.4,0.05,0.55l0.53,0.53l-1.11,1.11
			l-0.52-0.53c-0.15-0.15-0.39-0.17-0.57-0.05c-0.62,0.42-1.31,0.7-2.05,0.86c-0.21,0.04-0.35,0.22-0.35,0.42v0.76h-1.58v-0.76
			c0-0.21-0.15-0.38-0.35-0.42c-0.74-0.16-1.44-0.43-2.06-0.85c-0.18-0.13-0.41-0.1-0.56,0.05l-0.53,0.53l-1.11-1.11l0.53-0.53
			c0.15-0.15,0.18-0.38,0.05-0.56c-0.41-0.62-0.7-1.32-0.86-2.05c-0.03-0.22-0.22-0.36-0.42-0.36h-0.75v-1.58h0.75
			c0.21,0,0.39-0.14,0.42-0.35c0.16-0.73,0.43-1.43,0.86-2.06c0.12-0.17,0.09-0.4-0.05-0.55l-0.53-0.53l1.11-1.11l0.52,0.53
			c0.15,0.14,0.39,0.17,0.56,0.05c0.63-0.42,1.32-0.7,2.06-0.86c0.21-0.04,0.35-0.22,0.35-0.43v-0.75h1.58v0.75
			c0,0.22,0.15,0.39,0.35,0.43c0.74,0.15,1.44,0.43,2.06,0.85c0.18,0.13,0.41,0.1,0.56-0.05l0.53-0.53l1.11,1.11l-0.53,0.53
			c-0.15,0.15-0.18,0.38-0.05,0.56c0.41,0.62,0.7,1.32,0.85,2.05c0.04,0.22,0.23,0.35,0.43,0.35h0.75V21.21z"></path><path fill="#bbe0f6" d="M47.83,20.43c0,1.4-1.13,2.53-2.53,2.53c-1.39,0-2.52-1.13-2.52-2.53c0-1.4,1.13-2.53,2.52-2.53
			C46.7,17.9,47.83,19.03,47.83,20.43z"></path><path fill="#4e5292" d="M55.83 33.78c0 .27-.23.49-.49.49H42.78c-.28 0-.49-.23-.49-.49 0-.28.22-.49.49-.49h12.55C55.6 33.28 55.83 33.5 55.83 33.78zM55.83 37.1c0 .28-.23.49-.49.49H44.75c-.28 0-.49-.22-.49-.49 0-.28.22-.49.49-.49h10.58C55.6 36.6 55.83 36.82 55.83 37.1zM55.83 40.41c0 .28-.23.49-.49.49H40.81c-.28 0-.49-.22-.49-.49 0-.27.22-.49.49-.49h14.52C55.6 39.92 55.83 40.15 55.83 40.41z"></path><polygon fill="#a7d6e7" points="13.65 40.51 12.94 40.51 12.94 38.41"></polygon><path fill="#a7d6e7" d="M14.68 43.58H4.82V14.33l4.11 12.19v13.99H8.05c-.28 0-.49.22-.49.49 0 .27.22.49.49.49h5.93L14.68 43.58zM17.6 8.89l8.15 24.25V27.5c0-.09.02-.17.06-.24L19.64 8.89H17.6z"></path><polygon fill="#a7d6e7" points="30.28 40.51 29.76 40.51 29.76 38.99"></polygon><polygon fill="#a7d6e7" points="31.31 43.58 29.27 43.58 28.57 41.5 30.61 41.5"></polygon><path fill="#a7d6e7" d="M40.24,43.58h-2.05l-2.82-8.39v-2.08c0-0.28-0.23-0.49-0.49-0.49h-0.37L26.55,8.89h2.02L40.24,43.58z"></path></svg>