<svg xmlns="http://www.w3.org/2000/svg" data-name="Layer 1" viewBox="0 0 512 512" id="online-reports"><path fill="#595f74" d="M7.5 382.852h497a60 60 0 0 1-60 60h-377a60 60 0 0 1-60-60Z"></path><path fill="#676e87" d="M67.5 84.148h377a30 30 0 0 1 30 30v268.704h-437V114.148a30 30 0 0 1 30-30Z"></path><path fill="#595f74" d="M155.5 84.148h221v268.703h-221z"></path><rect width="238.703" height="377" x="136.649" y="45" fill="#b3e0ff" rx="6" transform="rotate(90 256 233.5)"></rect><path fill="#676e87" d="M283.292 412.976h-54.584a6 6 0 0 1-5.366-3.317L210 382.976h92l-13.341 26.683a6 6 0 0 1-5.367 3.317Z"></path><path fill="#66c1ff" d="M155.5 114.148h221v238.703h-221z"></path><path fill="#fff8cc" d="M145.5 352.852V67.5a30 30 0 0 1 30-30h161a30 30 0 0 1 30 30v285.352Z"></path><rect width="116" height="30" x="198" y="84.148" fill="#ffe966" rx="4"></rect><rect width="35" height="35" x="198" y="159.148" fill="#ffe966" rx="3"></rect><path fill="#ffe966" d="M327 166.648h-64a7.5 7.5 0 0 1 0-15h64a7.5 7.5 0 0 1 0 15zm0 35h-64a7.5 7.5 0 0 1 0-15h64a7.5 7.5 0 0 1 0 15z"></path><rect width="35" height="35" x="198" y="239.148" fill="#ffe966" rx="3"></rect><path fill="#ffe966" d="M327 246.648h-64a7.5 7.5 0 0 1 0-15h64a7.5 7.5 0 0 1 0 15zm0 35h-64a7.5 7.5 0 0 1 0-15h64a7.5 7.5 0 0 1 0 15zm0 45H198a7.5 7.5 0 1 1 0-15h129a7.5 7.5 0 0 1 0 15z"></path></svg>